STARTFONT 2.1
FONT -Monotype-Monotype Corsiva-Regular-R-Normal--36-360-75-75-P-175-iso8859-2
SIZE 36 75 75
FONTBOUNDINGBOX 48 43 -7 -12

STARTPROPERTIES 24
FOUNDRY "Monotype"
FAMILY_NAME "Monotype Corsiva"
WEIGHT_NAME "Regular"
SLANT "R"
SETWIDTH_NAME "Normal"
ADD_STYLE_NAME ""
PIXEL_SIZE 36
POINT_SIZE 360
RESOLUTION_X 75
RESOLUTION_Y 75
SPACING "P"
AVERAGE_WIDTH 175
CHARSET_REGISTRY "iso8859"
CHARSET_ENCODING "2"
FACE_NAME "Monotype Corsiva ISO Latin2"
_DEC_DEVICE_FONTNAMES "PS=monotypecorsiva-lat2"
COPYRIGHT "Copyright (c) 1993 Monotype Typography Ltd."
CAP_HEIGHT 27
X_HEIGHT 18
WEIGHT 10
QUAD_WIDTH 20
DEFAULT_CHAR 160
FONT_DESCENT 12
FONT_ASCENT 31
ENDPROPERTIES

CHARS 191

STARTCHAR space
ENCODING 32
SWIDTH 220 0
DWIDTH 8 0
BBX 0 0 0 0
BITMAP
ENDCHAR

STARTCHAR exclam
ENCODING 33
SWIDTH 280 0
DWIDTH 11 0
BBX 7 23 5 0
BITMAP
06
0E
0E
0C
0C
1C
1C
18
18
18
18
10
10
10
30
20
20
00
00
70
F0
F0
60
ENDCHAR

STARTCHAR quotedbl
ENCODING 34
SWIDTH 220 0
DWIDTH 8 0
BBX 9 10 5 12
BITMAP
3180
6300
6300
6300
4200
4600
C600
8400
8400
8400
ENDCHAR

STARTCHAR numbersign
ENCODING 35
SWIDTH 680 0
DWIDTH 26 0
BBX 21 22 6 0
BITMAP
0070C0
0061C0
006180
00E180
00C180
00C300
1FFFF8
1FFFF0
018600
018600
030600
030E00
030C00
7FFFE0
FFFFC0
061800
0E1800
0C1800
0C3000
1C3000
183000
186000
ENDCHAR

STARTCHAR dollar
ENCODING 36
SWIDTH 440 0
DWIDTH 17 0
BBX 15 29 4 -4
BITMAP
0010
0030
0020
00FC
01BE
026E
0440
0C40
0CC0
0C80
0E80
0F80
0780
03C0
01E0
0170
0370
0230
0230
0230
0620
0460
C4C0
FF80
FE00
0800
0800
0800
1000
ENDCHAR

STARTCHAR percent
ENCODING 37
SWIDTH 680 0
DWIDTH 26 0
BBX 19 22 6 0
BITMAP
0E0180
330300
218200
618600
618400
C18C00
C18800
C31800
C31000
C22000
662000
384380
00CCE0
009860
019860
013860
033060
0230E0
0630C0
0430C0
0C1980
180E00
ENDCHAR

STARTCHAR ampersand
ENCODING 38
SWIDTH 780 0
DWIDTH 30 0
BBX 29 28 4 -2
BITMAP
00000018
00000018
00000018
00001FF0
00007FC0
0000C300
00010600
00030600
00030E00
00030C00
07E30C00
18701C00
30701C00
60601800
6FC01800
C3003800
C0C03000
C0303000
E0186000
E00C6000
F004C000
7806C030
7C030030
3F8F8030
1FFDC030
07F0E020
000038C0
00001F80
ENDCHAR

STARTCHAR quoteright
ENCODING 39
SWIDTH 240 0
DWIDTH 9 0
BBX 5 9 7 17
BITMAP
38
38
38
18
18
30
20
C0
80
ENDCHAR

STARTCHAR parenleft
ENCODING 40
SWIDTH 260 0
DWIDTH 10 0
BBX 15 36 3 -10
BITMAP
0006
0018
0030
0060
00C0
0180
0300
0600
0E00
0C00
1800
1800
3800
3000
3000
6000
6000
6000
6000
C000
C000
C000
C000
C000
C000
C000
C000
4000
4000
6000
2000
2000
3000
1000
1000
0800
ENDCHAR

STARTCHAR parenright
ENCODING 41
SWIDTH 220 0
DWIDTH 8 0
BBX 15 36 -3 -10
BITMAP
0020
0010
0018
0008
0008
000C
0004
0004
0006
0006
0006
0006
0006
0006
0006
0006
0006
000C
000C
000C
001C
0018
0018
0030
0030
0060
0060
00C0
0180
0180
0300
0600
0C00
1800
E000
4000
ENDCHAR

STARTCHAR asterisk
ENCODING 42
SWIDTH 420 0
DWIDTH 16 0
BBX 13 12 5 14
BITMAP
0200
0300
0300
0700
FFF8
78F0
1860
0880
0FC0
1EC0
18E0
3020
ENDCHAR

STARTCHAR plus
ENCODING 43
SWIDTH 520 0
DWIDTH 20 0
BBX 16 16 5 3
BITMAP
0180
0180
0180
0180
0180
0180
0180
FFFF
FFFF
0180
0180
0180
0180
0180
0180
0180
ENDCHAR

STARTCHAR comma
ENCODING 44
SWIDTH 220 0
DWIDTH 8 0
BBX 6 10 1 -6
BITMAP
18
3C
3C
1C
18
18
30
60
C0
80
ENDCHAR

STARTCHAR minus
ENCODING 45
SWIDTH 600 0
DWIDTH 23 0
BBX 16 2 7 10
BITMAP
FFFF
FFFF
ENDCHAR

STARTCHAR period
ENCODING 46
SWIDTH 220 0
DWIDTH 8 0
BBX 4 4 3 0
BITMAP
70
F0
F0
60
ENDCHAR

STARTCHAR slash
ENCODING 47
SWIDTH 340 0
DWIDTH 13 0
BBX 20 33 0 -7
BITMAP
000030
000060
000060
0000C0
0000C0
000180
000300
000300
000600
000600
000C00
000C00
001800
001800
003000
006000
006000
00C000
00C000
018000
018000
030000
020000
060000
0C0000
0C0000
180000
180000
300000
300000
600000
C00000
C00000
ENDCHAR

STARTCHAR zero
ENCODING 48
SWIDTH 440 0
DWIDTH 17 0
BBX 15 23 4 0
BITMAP
01F0
0738
0E1C
1C1C
180E
380E
380E
700E
700E
700E
F00E
F00E
E01E
E01C
E01C
E01C
E038
E038
E030
7070
70E0
39C0
1F00
ENDCHAR

STARTCHAR one
ENCODING 49
SWIDTH 440 0
DWIDTH 17 0
BBX 13 23 4 0
BITMAP
0018
0030
0070
01F0
06E0
08E0
00E0
00E0
00C0
00C0
01C0
01C0
0180
0180
0380
0380
0300
0700
0700
0700
0F00
3F00
E1E0
ENDCHAR

STARTCHAR two
ENCODING 50
SWIDTH 440 0
DWIDTH 17 0
BBX 15 23 3 -1
BITMAP
01F0
03FC
061E
0C1E
180E
080E
000E
000E
001C
0018
0038
0060
00C0
0180
0300
0600
0C00
1800
300C
6018
FFF0
FFF0
0010
ENDCHAR

STARTCHAR three
ENCODING 51
SWIDTH 440 0
DWIDTH 17 0
BBX 14 23 3 0
BITMAP
00F0
03FC
063C
0C1C
001C
0018
0038
0030
0040
01E0
03F8
0678
003C
001C
001C
001C
0018
0038
0030
0060
E0C0
7180
3E00
ENDCHAR

STARTCHAR four
ENCODING 52
SWIDTH 440 0
DWIDTH 17 0
BBX 15 23 3 -1
BITMAP
0002
0006
000E
001C
002C
005C
009C
0118
0238
0438
0C38
1830
3070
2070
4060
FFFC
FFFC
00E0
00E0
00C0
00C0
01C0
01C0
ENDCHAR

STARTCHAR five
ENCODING 53
SWIDTH 440 0
DWIDTH 17 0
BBX 17 23 3 0
BITMAP
000380
01FF00
01FE00
010000
030000
030000
038000
03E000
03F000
00F800
007800
003800
001800
001800
001800
001800
003000
003000
006000
00C000
C18000
FF0000
780000
ENDCHAR

STARTCHAR six
ENCODING 54
SWIDTH 440 0
DWIDTH 17 0
BBX 16 23 5 0
BITMAP
001F
00F0
01C0
0700
0E00
1C00
1C00
3800
39C0
77F0
7870
F078
F038
E038
E038
E038
E038
E038
E070
7070
7060
38C0
1F00
ENDCHAR

STARTCHAR seven
ENCODING 55
SWIDTH 440 0
DWIDTH 17 0
BBX 15 22 6 0
BITMAP
3FFE
3FE8
2018
4010
0020
0040
00C0
0180
0300
0200
0600
0C00
1800
1800
3000
7000
6000
E000
E000
E000
C000
C000
ENDCHAR

STARTCHAR eight
ENCODING 56
SWIDTH 440 0
DWIDTH 17 0
BBX 15 23 4 0
BITMAP
00F8
018C
0306
0606
0606
0606
070C
0718
07B0
03E0
01E0
06F0
0C70
3878
7038
6038
E018
C018
C010
E030
E060
78C0
1F00
ENDCHAR

STARTCHAR nine
ENCODING 57
SWIDTH 440 0
DWIDTH 17 0
BBX 16 23 2 0
BITMAP
01F8
031C
060E
0E0E
0E07
1C07
1C07
1C07
1C07
1C07
1E07
1E0F
0E1E
07EE
039E
001C
0038
0038
0070
00E0
0380
1E00
F800
ENDCHAR

STARTCHAR colon
ENCODING 58
SWIDTH 260 0
DWIDTH 10 0
BBX 7 16 2 0
BITMAP
0E
1E
1E
1C
00
00
00
00
00
00
00
00
70
F0
F0
60
ENDCHAR

STARTCHAR semicolon
ENCODING 59
SWIDTH 240 0
DWIDTH 9 0
BBX 9 21 1 -5
BITMAP
0380
0780
0780
0300
0000
0000
0000
0000
0000
0000
0000
1800
3C00
3C00
1C00
1800
1800
3000
6000
C000
8000
ENDCHAR

STARTCHAR less
ENCODING 60
SWIDTH 520 0
DWIDTH 20 0
BBX 17 17 4 2
BITMAP
000180
000780
001E00
00F800
03E000
0F8000
3E0000
F00000
E00000
7C0000
1F0000
07C000
01F000
003C00
000F00
000380
000080
ENDCHAR

STARTCHAR equal
ENCODING 61
SWIDTH 520 0
DWIDTH 20 0
BBX 17 8 5 8
BITMAP
FFFF80
FFFF80
000000
000000
000000
000000
FFFF80
FFFF80
ENDCHAR

STARTCHAR greater
ENCODING 62
SWIDTH 520 0
DWIDTH 20 0
BBX 17 17 6 2
BITMAP
C00000
F00000
3C0000
0F0000
03E000
00F800
003E00
000B80
000780
001F00
007C00
01F000
078000
1E0000
F80000
E00000
800000
ENDCHAR

STARTCHAR question
ENCODING 63
SWIDTH 380 0
DWIDTH 14 0
BBX 13 23 3 0
BITMAP
0780
0FE0
0E30
0410
0018
0018
0018
0038
0070
01F0
07E0
1FC0
1F00
3800
3000
2000
2000
0000
0000
7000
F000
F000
6000
ENDCHAR

STARTCHAR at
ENCODING 64
SWIDTH 700 0
DWIDTH 27 0
BBX 22 23 5 -1
BITMAP
003F80
01E1E0
030070
0600B8
0C0F1C
183F1C
30430C
30870C
61860C
63060C
E3061C
C60E18
C60E30
C60C30
C61C60
C76CC0
E7CF00
E30C00
E00040
7000C0
380300
1E0E00
07F000
ENDCHAR

STARTCHAR A
ENCODING 65
SWIDTH 620 0
DWIDTH 24 0
BBX 26 28 -2 -4
BITMAP
00000080
00000180
0000FF00
00030700
000C0F00
000C0B00
00181700
00183700
001C6700
00184600
0000C600
00018E00
00010E00
00020E00
00060E00
00040E00
000FFC00
00180C00
00100C00
00301C00
00601C00
00C01C00
00801C00
01803FC0
03000000
4E000000
FC000000
F0000000
ENDCHAR

STARTCHAR B
ENCODING 66
SWIDTH 600 0
DWIDTH 23 0
BBX 21 22 3 0
BITMAP
003FC0
01C0F0
070030
0C7C38
183838
303838
203830
403070
4070E0
807180
807FC0
8070F0
80E078
C0E038
C0E038
70E038
71C038
01C070
01C070
0380E0
038380
1FFE00
ENDCHAR

STARTCHAR C
ENCODING 67
SWIDTH 520 0
DWIDTH 20 0
BBX 20 26 4 -4
BITMAP
003F80
00E1F0
01C060
030060
060060
0E0060
1C0060
380040
380000
700000
700000
700000
F00000
E00000
E00000
E00000
E00000
E00000
E00000
F00000
700100
700200
380600
3C1800
0FF000
03C000
ENDCHAR

STARTCHAR D
ENCODING 68
SWIDTH 700 0
DWIDTH 27 0
BBX 26 22 3 0
BITMAP
003FE000
01E07C00
03001E00
0C7E0F00
183C0780
301C0380
203803C0
403801C0
403801C0
C03801C0
807001C0
807001C0
807001C0
C0F00380
E0E00380
70E00780
30E00700
01C00E00
01C01C00
01807800
0381E000
1FFF8000
ENDCHAR

STARTCHAR E
ENCODING 69
SWIDTH 620 0
DWIDTH 24 0
BBX 23 23 2 0
BITMAP
000002
01FFFE
073804
183804
303004
207000
407000
407000
C06020
C0E040
C0FFC0
C0E0C0
E0C040
61C000
01C000
01C000
038000
038008
03800C
07000C
07000C
0EFE18
3FFFF0
ENDCHAR

STARTCHAR F
ENCODING 70
SWIDTH 580 0
DWIDTH 22 0
BBX 22 23 4 0
BITMAP
000004
01FFFC
073804
18380C
103808
207000
607000
407000
C06040
C0E0C0
C0FFC0
C0E080
E0C080
61C000
01C000
01C000
018000
038000
038000
038000
070000
0F0000
3FF000
ENDCHAR

STARTCHAR G
ENCODING 71
SWIDTH 620 0
DWIDTH 24 0
BBX 21 31 5 -9
BITMAP
003FC0
00E078
038030
070010
0E0010
1C0010
380010
380000
700000
700000
F00000
E00000
E00000
E01FE0
E00380
E00380
F00300
700700
780700
3C0F00
1FF600
07CE00
000E00
000C00
001C00
001C00
003800
303000
387000
3CE000
1F8000
ENDCHAR

STARTCHAR H
ENCODING 72
SWIDTH 680 0
DWIDTH 26 0
BBX 33 25 1 -1
BITMAP
0000001F00
0000007380
007F00E180
03CE00C000
060E01C000
0C0E018000
181C038000
181C038000
181C070000
1C18070000
0C38070000
003BFE0000
003FFE0000
00300E0000
00700E0000
00700C0000
00701C0000
00E01C0000
00E01C0000
00C0380000
01C0380000
0180380000
C380380000
E6007F8000
7C00000000
ENDCHAR

STARTCHAR I
ENCODING 73
SWIDTH 380 0
DWIDTH 14 0
BBX 15 22 3 0
BITMAP
01FE
06F0
00E0
00E0
00C0
01C0
01C0
01C0
0180
0380
0380
0380
0300
0700
0700
0700
0600
0E00
0E00
0E00
1C00
FFC0
ENDCHAR

STARTCHAR J
ENCODING 74
SWIDTH 400 0
DWIDTH 15 0
BBX 18 27 0 -5
BITMAP
003FC0
00E3C0
018380
030380
020300
060700
060700
070700
030E00
000E00
000E00
000C00
001C00
001C00
001C00
003800
003800
003800
007000
007000
007000
00E000
00E000
80C000
E18000
F30000
7E0000
ENDCHAR

STARTCHAR K
ENCODING 75
SWIDTH 660 0
DWIDTH 25 0
BBX 27 27 3 -5
BITMAP
07F83FC0
1C700E00
30701800
60703000
40E06000
C0E0C000
E0E30000
E0C60000
01DC0000
01F80000
01DC0000
019C0000
038E0000
038E0000
03860000
07070000
07070000
07030000
07038000
0E038000
1E018000
7FC1C000
0000C000
0000E060
00007060
000038E0
00000F80
ENDCHAR

STARTCHAR L
ENCODING 76
SWIDTH 580 0
DWIDTH 22 0
BBX 21 22 1 0
BITMAP
0007E0
000CF0
001870
003000
007000
00E000
00E000
01C000
01C000
01C000
018000
038000
038000
038000
030000
070000
070000
070018
0E0018
0E0018
1DFC30
FFFFE0
ENDCHAR

STARTCHAR M
ENCODING 77
SWIDTH 840 0
DWIDTH 32 0
BBX 32 25 2 -1
BITMAP
00000001
00010002
00FF0006
03C7000C
0607001C
0C05803C
180D806C
100D80D8
300B80B8
300B81B8
380B8338
181B8670
181B8470
00118C70
00118870
003190E0
0021B0E0
0061E0E0
0041E0E0
00C1C1C0
0081C1C0
018181C0
470181C0
FE0103FC
78000000
ENDCHAR

STARTCHAR N
ENCODING 78
SWIDTH 700 0
DWIDTH 27 0
BBX 33 25 1 -2
BITMAP
0000000F00
003F001F80
01E7003100
0707006000
0407804000
080D80C000
180B80C000
1809808000
1809C08000
1819C18000
1C18C10000
0C10E10000
0010E30000
0010730000
0030720000
0020720000
00203A0000
00603E0000
00403C0000
00401C0000
00C01C0000
01800C0000
E300080000
7E00080000
3C00000000
ENDCHAR

STARTCHAR O
ENCODING 79
SWIDTH 600 0
DWIDTH 23 0
BBX 21 22 4 0
BITMAP
00FF00
0383C0
0601E0
0C00F0
180078
380078
300038
700038
700038
F00038
E00038
E00038
E00078
E00070
E00070
F00060
F000E0
7001C0
780180
3C0700
1F1E00
07F800
ENDCHAR

STARTCHAR P
ENCODING 80
SWIDTH 540 0
DWIDTH 21 0
BBX 22 22 3 0
BITMAP
003FC0
01C070
060038
0C781C
10381C
20381C
60701C
40703C
C07038
806070
80E1C0
80FF00
80E000
C0C000
61C000
71C000
31C000
018000
038000
038000
0F8400
3FFC00
ENDCHAR

STARTCHAR Q
ENCODING 81
SWIDTH 600 0
DWIDTH 23 0
BBX 27 31 4 -9
BITMAP
00FF0000
0383C000
0601E000
0C00F000
18007800
38007800
30003800
70003800
70003800
F0003800
E0003800
E0003800
E0007800
E0007000
E0007000
F0006000
F000E000
7001C000
78038000
3C070000
1F1C0000
07F00000
01E00000
00700000
003C0000
001E0000
000F0000
00078060
0003C060
0001F1C0
00007F00
ENDCHAR

STARTCHAR R
ENCODING 82
SWIDTH 600 0
DWIDTH 23 0
BBX 27 28 4 -5
BITMAP
00FF8000
0383E000
0E00E000
19F07000
30F07000
20E07000
40E07000
40E0F000
80C0E000
81C1C000
81C78000
81FC0000
C1D80000
C39C0000
739C0000
638E0000
038E0000
030E0000
07060000
07070000
0F070000
1E038000
7FE38000
0001C000
0000C060
000060E0
000030C0
00000F80
ENDCHAR

STARTCHAR S
ENCODING 83
SWIDTH 460 0
DWIDTH 17 0
BBX 19 25 1 -3
BITMAP
000FE0
0038E0
006060
00C060
00C040
01C040
01C040
01C000
01E000
00E000
00F000
007800
003C00
001E00
000F00
000F00
000700
000700
000700
600600
E00600
F00C00
701800
387000
0FC000
ENDCHAR

STARTCHAR T
ENCODING 84
SWIDTH 500 0
DWIDTH 19 0
BBX 25 26 3 0
BITMAP
00000180
00000180
00000180
00FF8300
07FFFE00
1C070000
30060000
200E0000
400E0000
400E0000
C00C0000
C01C0000
C01C0000
E01C0000
601C0000
20380000
00380000
00380000
00380000
00700000
00700000
00700000
00700000
00E00000
01E00000
0FFF0000
ENDCHAR

STARTCHAR U
ENCODING 85
SWIDTH 740 0
DWIDTH 28 0
BBX 26 26 4 0
BITMAP
00000180
000001C0
000001C0
000000C0
07F800C0
1C7000C0
307000C0
60E000C0
40E000C0
C0C00080
E1C00080
E1C00080
43800180
03800100
03800300
03000300
07000200
07000600
07000C00
07000C00
07001800
07803000
03C06000
03E3C000
01FF8000
00FE0000
ENDCHAR

STARTCHAR V
ENCODING 86
SWIDTH 640 0
DWIDTH 24 0
BBX 26 27 4 -1
BITMAP
00000180
000001C0
000000C0
000000C0
01FC00C0
073800C0
18700080
30700180
60E00300
40E00300
C0C00600
C1C00C00
C1C01800
E1C03000
41C03000
01C06000
01C0C000
01C18000
01C30000
01C60000
00CC0000
00D80000
00F00000
00E00000
00C00000
00800000
00800000
ENDCHAR

STARTCHAR W
ENCODING 87
SWIDTH 880 0
DWIDTH 33 0
BBX 36 28 3 -2
BITMAP
0000000060
0000000070
0000000030
0000010030
01F8030030
0770070030
18E00E0020
30E0060060
61C01E0040
41C03600C0
41C06E0080
C3804E0180
C380CE0300
E3818E0200
43810E0600
03830E0C00
03860C1800
03840C1000
038C0C3000
03980C6000
03900CC000
03A00D8000
01E00D0000
01C00F0000
01801E0000
01001C0000
0100180000
0000100000
ENDCHAR

STARTCHAR X
ENCODING 88
SWIDTH 560 0
DWIDTH 21 0
BBX 29 26 0 -2
BITMAP
000000F8
000003F0
00FE0700
000E0C00
000E0800
000E1000
000E3000
000E6000
0006C000
00078000
00070000
00030000
00078000
00078000
000B8000
00198000
00318000
0021C000
0061C000
00C1C000
0181C000
0301C000
0701C000
0E01F800
F8000000
F0000000
ENDCHAR

STARTCHAR Y
ENCODING 89
SWIDTH 560 0
DWIDTH 21 0
BBX 27 25 4 0
BITMAP
000001E0
000003E0
00400600
03E00C00
0EF01800
18703000
20706000
40384000
C038C000
80188000
801D0000
C01F0000
C01E0000
E01E0000
001C0000
001C0000
001C0000
00380000
00380000
00380000
00300000
00700000
00700000
00F00000
03FF0000
ENDCHAR

STARTCHAR Z
ENCODING 90
SWIDTH 620 0
DWIDTH 24 0
BBX 23 23 3 -1
BITMAP
00FE0E
01FFFC
031FF8
020030
030060
0380C0
000180
000300
000600
000C00
001800
003000
006000
00C000
018000
030000
060000
0C000C
1C000C
30000C
6FFC0C
FFFF98
E007E0
ENDCHAR

STARTCHAR bracketleft
ENCODING 91
SWIDTH 240 0
DWIDTH 9 0
BBX 13 32 2 -6
BITMAP
00F8
0180
0180
0180
0180
0380
0300
0300
0300
0300
0600
0600
0600
0600
0C00
0C00
0C00
0C00
1C00
1800
1800
1800
1800
3000
3000
3000
3000
7000
6000
6000
6000
FC00
ENDCHAR

STARTCHAR backslash
ENCODING 92
SWIDTH 480 0
DWIDTH 18 0
BBX 10 33 8 -7
BITMAP
C000
C000
C000
6000
6000
6000
6000
3000
3000
3000
3000
1800
1800
1800
1800
0C00
0C00
0C00
0C00
0600
0600
0600
0600
0300
0300
0300
0300
0180
0180
0180
0180
00C0
00C0
ENDCHAR

STARTCHAR bracketright
ENCODING 93
SWIDTH 320 0
DWIDTH 12 0
BBX 13 32 1 -6
BITMAP
01F8
0018
0038
0030
0030
0030
0030
0060
0060
0060
0060
00E0
00C0
00C0
00C0
01C0
0180
0180
0180
0180
0300
0300
0300
0300
0700
0600
0600
0600
0600
0C00
0C00
FC00
ENDCHAR

STARTCHAR asciicircum
ENCODING 94
SWIDTH 520 0
DWIDTH 20 0
BBX 10 6 9 16
BITMAP
0C00
1E00
1F00
3300
7380
E1C0
ENDCHAR

STARTCHAR underscore
ENCODING 95
SWIDTH 500 0
DWIDTH 19 0
BBX 19 2 0 -5
BITMAP
FFFFE0
FFFFE0
ENDCHAR

STARTCHAR quoteleft
ENCODING 96
SWIDTH 240 0
DWIDTH 9 0
BBX 5 9 8 17
BITMAP
08
10
20
60
C0
C0
E0
E0
E0
ENDCHAR

STARTCHAR a
ENCODING 97
SWIDTH 420 0
DWIDTH 16 0
BBX 15 17 3 0
BITMAP
0004
00FC
03FC
0618
0C18
1838
1038
3030
7070
6070
6070
E0E0
E0E0
E162
F6EC
FCF8
78E0
ENDCHAR

STARTCHAR b
ENCODING 98
SWIDTH 420 0
DWIDTH 16 0
BBX 14 27 4 0
BITMAP
0038
00FC
0338
0600
0E00
0C00
0C00
1C00
1C00
1800
3800
39F0
3BF8
3678
7838
7838
7038
7038
6038
E070
E070
C060
C0E0
C0C0
E180
E300
7C00
ENDCHAR

STARTCHAR c
ENCODING 99
SWIDTH 340 0
DWIDTH 13 0
BBX 12 16 3 0
BITMAP
01E0
07F0
0C70
1800
3000
3000
7000
6000
6000
E000
E000
E020
E060
F180
7F00
3C00
ENDCHAR

STARTCHAR d
ENCODING 100
SWIDTH 440 0
DWIDTH 17 0
BBX 23 27 3 0
BITMAP
00001C
00007E
0001DC
000300
000300
000600
000600
000E00
000C00
000C00
001C00
00FC00
03FC00
061800
0C1800
183800
103800
303000
703000
607000
607000
E0E000
E0E200
E36600
FEFC00
7CF000
30C000
ENDCHAR

STARTCHAR e
ENCODING 101
SWIDTH 340 0
DWIDTH 13 0
BBX 12 16 3 0
BITMAP
01E0
07F0
0C70
1870
1860
30E0
7180
7700
7C00
F000
E000
E060
E0C0
F380
FE00
7C00
ENDCHAR

STARTCHAR f
ENCODING 102
SWIDTH 320 0
DWIDTH 12 0
BBX 26 36 -5 -9
BITMAP
00000780
00001FC0
000033C0
00006000
0000C000
0001C000
00018000
00018000
00038000
00038000
00030000
00070000
007FF800
00070000
00060000
000E0000
000E0000
000E0000
000C0000
001C0000
001C0000
001C0000
00180000
00380000
00380000
00380000
00300000
00700000
00700000
00600000
00600000
00C00000
01800000
FF000000
FC000000
70000000
ENDCHAR

STARTCHAR g
ENCODING 103
SWIDTH 400 0
DWIDTH 15 0
BBX 17 26 0 -9
BITMAP
000080
001F80
007F80
00C300
018700
030700
020700
060600
0E0E00
0C0E00
0C0E00
0C1C00
1C1C00
1C2C00
1FDC00
0B9C00
061C00
1C1C00
301C00
601800
C01800
C03800
C07000
E07000
71C000
3F8000
ENDCHAR

STARTCHAR h
ENCODING 104
SWIDTH 440 0
DWIDTH 17 0
BBX 15 27 3 0
BITMAP
001C
007E
01FC
0300
0300
0700
0600
0600
0E00
0E00
0C00
0C3C
1C7C
1D9C
1B1C
1E18
3C38
3838
3830
3070
7070
7060
70E2
60E4
E0F8
E0F0
0060
ENDCHAR

STARTCHAR i
ENCODING 105
SWIDTH 240 0
DWIDTH 9 0
BBX 9 24 3 0
BITMAP
0380
0380
0380
0000
0000
0000
0000
0000
0E00
3E00
6E00
CC00
1C00
1C00
1800
1800
3800
3800
3000
3000
7300
7600
7C00
7000
ENDCHAR

STARTCHAR j
ENCODING 106
SWIDTH 220 0
DWIDTH 8 0
BBX 17 33 -4 -9
BITMAP
000380
000380
000380
000000
000000
000000
000000
000000
000E00
003E00
006E00
008C00
001C00
001C00
001800
003800
003800
003800
003000
007000
007000
006000
00E000
00E000
00E000
00C000
01C000
018000
018000
010000
E30000
FE0000
780000
ENDCHAR

STARTCHAR k
ENCODING 107
SWIDTH 440 0
DWIDTH 17 0
BBX 22 33 3 -7
BITMAP
001C00
007E00
019C00
030000
030000
070000
060000
060000
0E0000
0E0000
0C3800
0CFC00
1D8C00
1E0C00
1C1C00
181800
387000
3F8000
3E0000
330000
718000
71C000
70E000
60E000
E06000
E07000
003000
003800
00180C
001C0C
000E0C
000718
0001F0
ENDCHAR

STARTCHAR l
ENCODING 108
SWIDTH 240 0
DWIDTH 9 0
BBX 14 27 4 0
BITMAP
003C
00FC
03F8
0600
0600
0E00
0C00
0C00
1C00
1C00
1800
1800
3800
3800
3000
3000
7000
7000
7000
6000
E000
E000
E300
C600
CC00
F000
E000
ENDCHAR

STARTCHAR m
ENCODING 109
SWIDTH 620 0
DWIDTH 24 0
BBX 22 16 3 0
BITMAP
1C3C78
3C7CF8
5DBB38
9F1E38
1E3C30
1C3870
183070
383060
3870E0
3070E0
3060C0
7061C4
70E1CC
60E1F0
E0C1E0
0000C0
ENDCHAR

STARTCHAR n
ENCODING 110
SWIDTH 460 0
DWIDTH 17 0
BBX 16 16 3 0
BITMAP
0E1E
3E3E
6E6E
CD8E
0F0E
1E1C
1C1C
1C1C
1818
1838
3838
3830
3831
3072
707C
0030
ENDCHAR

STARTCHAR o
ENCODING 111
SWIDTH 400 0
DWIDTH 15 0
BBX 13 16 3 0
BITMAP
03E0
0C70
1878
3038
3038
7038
6038
E038
E038
E030
E070
E060
E060
F0C0
7980
3E00
ENDCHAR

STARTCHAR p
ENCODING 112
SWIDTH 440 0
DWIDTH 17 0
BBX 19 25 0 -9
BITMAP
01C3C0
07C7E0
0DD9E0
19F0E0
01E0E0
01C0E0
0180C0
0380C0
0380C0
038180
030180
070300
070300
070600
078C00
0EF000
0E0000
0E0000
0C0000
0C0000
1C0000
1C0000
180000
3C0000
FF8000
ENDCHAR

STARTCHAR q
ENCODING 113
SWIDTH 400 0
DWIDTH 15 0
BBX 15 26 3 -9
BITMAP
0002
00FE
03FC
061C
0C1C
181C
1018
3038
7038
6038
6070
E070
E0F0
E1B0
F760
FCE0
78E0
00E0
00C0
00C0
01C0
01C0
0180
0380
03C0
3FF0
ENDCHAR

STARTCHAR r
ENCODING 114
SWIDTH 300 0
DWIDTH 11 0
BBX 14 17 3 0
BITMAP
001C
0E38
1E70
6EC0
CD80
0F00
1E00
1C00
1C00
1800
3800
3800
3800
3000
3000
7000
7000
ENDCHAR

STARTCHAR s
ENCODING 115
SWIDTH 320 0
DWIDTH 12 0
BBX 12 16 2 0
BITMAP
03E0
0670
0C30
0C00
0C00
0E00
0F00
0780
03C0
01C0
01C0
40C0
E0C0
E1C0
6380
3E00
ENDCHAR

STARTCHAR t
ENCODING 116
SWIDTH 320 0
DWIDTH 12 0
BBX 9 20 4 0
BITMAP
0600
0C00
0C00
1C00
1C00
FF80
1800
3800
3800
3000
3000
7000
7000
6000
6080
E180
E700
FC00
F800
6000
ENDCHAR

STARTCHAR u
ENCODING 117
SWIDTH 460 0
DWIDTH 17 0
BBX 16 16 4 0
BITMAP
0C00
1E0E
7E0C
CC0C
9C1C
1C1C
1C18
1838
3838
3838
3070
30F0
71B3
7376
7C7C
7870
ENDCHAR

STARTCHAR v
ENCODING 118
SWIDTH 440 0
DWIDTH 17 0
BBX 17 17 2 -1
BITMAP
006100
1FC380
618180
C38180
C70180
C70100
0E0100
0E0300
0E0200
0E0400
0E0C00
0E1800
0E3000
076000
07C000
070000
060000
ENDCHAR

STARTCHAR w
ENCODING 119
SWIDTH 680 0
DWIDTH 26 0
BBX 26 17 2 0
BITMAP
00200080
0FE181C0
718380C0
C38380C0
C70380C0
C7078080
0F070080
0E070180
0E070100
0E070300
0E070600
0E0B0400
0E171800
07633000
07C3E000
0783C000
06030000
ENDCHAR

STARTCHAR x
ENCODING 120
SWIDTH 420 0
DWIDTH 16 0
BBX 21 23 1 -6
BITMAP
0000E0
0181E0
07C780
19C400
08C800
00F000
00F000
00E000
006000
00E000
01B000
017000
023000
063000
CC3800
F83800
601800
001800
000C00
000C08
000618
000338
0001F0
ENDCHAR

STARTCHAR y
ENCODING 121
SWIDTH 400 0
DWIDTH 15 0
BBX 18 25 -1 -9
BITMAP
018080
03C1C0
1FE0C0
08E0C0
0060C0
0070C0
007080
003080
003980
003900
003900
001B00
001A00
001E00
001C00
001C00
001800
001800
003000
006000
004000
008000
E30000
FE0000
F80000
ENDCHAR

STARTCHAR z
ENCODING 122
SWIDTH 440 0
DWIDTH 17 0
BBX 17 17 1 0
BITMAP
000080
03FF00
07FA00
040C00
041800
063000
006000
00C000
018000
030000
060000
0C0300
180300
3F0300
7FE200
C7FC00
01F800
ENDCHAR

STARTCHAR braceleft
ENCODING 123
SWIDTH 240 0
DWIDTH 9 0
BBX 12 33 4 -7
BITMAP
0030
00C0
0180
0300
0700
0600
0600
0600
0E00
0C00
0C00
0C00
0C00
1800
1800
3000
6000
3000
3000
3000
3000
3000
6000
6000
6000
6000
C000
C000
C000
C000
C000
7000
0800
ENDCHAR

STARTCHAR bar
ENCODING 124
SWIDTH 520 0
DWIDTH 20 0
BBX 2 35 12 -9
BITMAP
C0
C0
C0
C0
C0
C0
C0
C0
C0
C0
C0
C0
C0
C0
C0
C0
C0
C0
C0
C0
C0
C0
C0
C0
C0
C0
C0
C0
C0
C0
C0
C0
C0
C0
C0
ENDCHAR

STARTCHAR braceright
ENCODING 125
SWIDTH 240 0
DWIDTH 9 0
BBX 12 33 -1 -7
BITMAP
0180
0060
0030
0030
0030
0030
0030
0070
0060
0060
0060
00E0
00C0
00C0
00C0
00C0
0070
00C0
0180
0180
0380
0300
0300
0300
0700
0600
0600
0600
0E00
0C00
1800
7800
8000
ENDCHAR

STARTCHAR asciitilde
ENCODING 126
SWIDTH 520 0
DWIDTH 20 0
BBX 17 6 5 8
BITMAP
000100
1F0180
3FC700
61FE00
C03C00
400000
ENDCHAR

STARTCHAR space
ENCODING 160
SWIDTH 220 0
DWIDTH 9 0
BBX 0 0 0 0
BITMAP
ENDCHAR

STARTCHAR Aogonek
ENCODING 161
SWIDTH 620 0
DWIDTH 24 0
BBX 25 31 -2 -7
BITMAP
00000100
00000300
0001FF00
00070700
000C0F00
00081A00
00183600
00182600
00186E00
0018CE00
00008E00
00018E00
00030E00
00020C00
00060C00
000C1C00
000FFC00
00181C00
00301C00
00201C00
00601C00
00C01C00
00803800
01803F80
03006000
4E004000
FC00C000
F800C000
0000C000
0000E000
00007C00
ENDCHAR

STARTCHAR breve
ENCODING 162
SWIDTH 440 0
DWIDTH 17 0
BBX 9 5 10 18
BITMAP
8080
C180
6700
7E00
3C00
ENDCHAR

STARTCHAR Lslash
ENCODING 163
SWIDTH 580 0
DWIDTH 22 0
BBX 21 22 1 0
BITMAP
0007E0
000CF0
001870
003000
007000
00E000
00E000
00C100
01C600
019C00
01F000
03C000
038000
0F8000
330000
670000
070000
070018
060018
0E0018
1DFC30
FFFFE0
ENDCHAR

STARTCHAR currency
ENCODING 164
SWIDTH 600 0
DWIDTH 23 0
BBX 16 16 7 3
BITMAP
C7E2
EFFB
3C3C
700E
6006
E007
C003
C003
C003
C003
E007
6006
300C
7C3E
EFFB
47E2
ENDCHAR

STARTCHAR Lcaron
ENCODING 165
SWIDTH 580 0
DWIDTH 22 0
BBX 24 22 1 0
BITMAP
0007E7
000CF7
001873
003003
007006
00E004
00E018
01C008
01C000
01C000
018000
038000
038000
038000
030000
070000
070000
070018
0E0018
0E0018
1DFC30
FFFFE0
ENDCHAR

STARTCHAR Sacute
ENCODING 166
SWIDTH 460 0
DWIDTH 17 0
BBX 20 34 1 -3
BITMAP
0000F0
0000E0
0001C0
000300
000200
000400
000000
000000
000000
000FE0
0038E0
006060
00C060
00C040
01C040
01C040
01C000
01E000
00F000
00F000
007800
003C00
001E00
000E00
000F00
000700
000700
000700
600600
E00600
F00C00
701800
387000
1FC000
ENDCHAR

STARTCHAR section
ENCODING 167
SWIDTH 420 0
DWIDTH 16 0
BBX 22 33 -1 -7
BITMAP
0003F8
000E3C
001C1C
00340C
006C00
006C00
00CC00
00CC00
008C00
018600
018600
018600
018600
018600
018700
018300
00C300
00C300
00C300
00C300
00C300
006300
006300
006200
006600
006600
006400
006C00
005800
807000
E0E000
F1C000
7F0000
ENDCHAR

STARTCHAR dieresis
ENCODING 168
SWIDTH 360 0
DWIDTH 14 0
BBX 8 3 9 18
BITMAP
E7
E7
E7
ENDCHAR

STARTCHAR Scaron
ENCODING 169
SWIDTH 460 0
DWIDTH 17 0
BBX 21 34 1 -3
BITMAP
000808
000C30
000460
0006C0
000780
000700
000000
000000
000000
000FE0
0038E0
006060
00C060
00C040
01C040
01C040
01C000
01E000
00F000
00F000
007800
003C00
001E00
000E00
000F00
000700
000700
000700
600600
E00600
F00C00
701800
387000
1FC000
ENDCHAR

STARTCHAR Scommaaccent
ENCODING 170
SWIDTH 460 0
DWIDTH 17 0
BBX 19 34 1 -12
BITMAP
000FE0
0038E0
006060
00C060
00C040
01C040
01C040
01C000
01E000
00F000
00F000
007800
003C00
001E00
000E00
000F00
000700
000700
000700
600600
E00600
F00C00
701800
387000
1FC000
000000
020000
070000
070000
030000
020000
060000
0C0000
180000
ENDCHAR

STARTCHAR Tcaron
ENCODING 171
SWIDTH 500 0
DWIDTH 19 0
BBX 25 31 3 0
BITMAP
00040C00
00063000
00066000
0003C000
0003C000
00000180
00000180
00000180
01FF8300
07FFFE00
1E070000
30060000
200E0000
400E0000
400E0000
C00C0000
C01C0000
C01C0000
E01C0000
60180000
20180000
00380000
00380000
00380000
00700000
00700000
00700000
00700000
00E00000
01E00000
0FFF0000
ENDCHAR

STARTCHAR Zacute
ENCODING 172
SWIDTH 620 0
DWIDTH 24 0
BBX 23 31 3 -1
BITMAP
00003C
000070
0000C0
000180
000300
000000
000000
000000
00FE0E
01FFFC
031FF8
020030
030060
0380C0
000180
000300
000600
000C00
001800
003000
006000
00C000
018000
030000
060000
0E000C
1C000C
38000C
67FC0C
7FFF98
E007F0
ENDCHAR

STARTCHAR hyphen
ENCODING 173
SWIDTH 280 0
DWIDTH 11 0
BBX 9 2 3 7
BITMAP
FF80
FF80
ENDCHAR

STARTCHAR Zcaron
ENCODING 174
SWIDTH 620 0
DWIDTH 24 0
BBX 23 31 3 -1
BITMAP
000206
000318
0001B0
0001E0
0001E0
000000
000000
000000
00FE0E
01FFFC
031FF8
020030
030060
0380C0
000180
000300
000600
000C00
001800
003000
006000
00C000
018000
030000
060000
0E000C
1C000C
38000C
67FC0C
7FFF98
E007F0
ENDCHAR

STARTCHAR Zdotaccent
ENCODING 175
SWIDTH 620 0
DWIDTH 24 0
BBX 23 30 3 -1
BITMAP
000180
0003C0
0003C0
000180
000000
000000
000000
00FC0E
01FFFC
021FF8
020030
030060
0380C0
000180
000300
000600
000C00
001800
003000
006000
00C000
018000
030000
060000
0E000C
1C001C
38000C
67FC0C
7FFF98
E00FE0
ENDCHAR

STARTCHAR degree
ENCODING 176
SWIDTH 400 0
DWIDTH 15 0
BBX 10 10 8 12
BITMAP
1E00
3F00
6180
C0C0
C0C0
C0C0
C0C0
6180
3F00
1E00
ENDCHAR

STARTCHAR aogonek
ENCODING 177
SWIDTH 420 0
DWIDTH 16 0
BBX 15 23 3 -6
BITMAP
0004
00FC
03F8
0618
0C38
1838
3030
3070
6070
6070
6060
E0E0
E162
E364
FEF8
7CF0
70E0
0040
00C0
00C0
00C0
00E0
007C
ENDCHAR

STARTCHAR ogonek
ENCODING 178
SWIDTH 280 0
DWIDTH 11 0
BBX 6 7 3 -7
BITMAP
60
40
C0
C0
C0
E0
7C
ENDCHAR

STARTCHAR lslash
ENCODING 179
SWIDTH 300 0
DWIDTH 11 0
BBX 16 27 3 0
BITMAP
000F
003F
00EE
00C0
0180
0380
0380
0300
0700
0708
0710
0660
0EC0
0F00
0E00
1C00
3C00
EC00
9C00
1800
1800
3800
38C0
3980
3B00
3E00
3800
ENDCHAR

STARTCHAR acute
ENCODING 180
SWIDTH 300 0
DWIDTH 11 0
BBX 7 5 9 18
BITMAP
1E
38
70
60
80
ENDCHAR

STARTCHAR lcaron
ENCODING 181
SWIDTH 337 0
DWIDTH 13 0
BBX 17 27 4 0
BITMAP
007300
00FB80
013380
030380
060180
060300
0E0200
0E0C00
0C0400
1C0000
1C0000
1C0000
180000
380000
380000
380000
300000
700000
700000
700000
600000
600000
E10000
E60000
EC0000
F80000
E00000
ENDCHAR

STARTCHAR sacute
ENCODING 182
SWIDTH 320 0
DWIDTH 12 0
BBX 15 24 2 0
BITMAP
001E
0038
0070
0060
00C0
0100
0000
0000
03E0
0670
0C30
0C00
0C00
0E00
0F00
0780
0380
01C0
01C0
40C0
E0C0
E1C0
6380
3E00
ENDCHAR

STARTCHAR caron
ENCODING 183
SWIDTH 340 0
DWIDTH 13 0
BBX 9 5 9 18
BITMAP
8180
C600
4C00
7C00
7800
ENDCHAR

STARTCHAR commaaccent
ENCODING 184
SWIDTH 333 0
DWIDTH 13 0
BBX 5 8 3 -10
BITMAP
38
38
18
18
10
20
C0
40
ENDCHAR

STARTCHAR scaron
ENCODING 185
SWIDTH 320 0
DWIDTH 12 0
BBX 15 24 2 0
BITMAP
0302
010C
0198
01B0
01E0
00E0
0000
0000
03E0
0670
0C30
0C00
0C00
0E00
0F00
0780
0380
01C0
01C0
40C0
E0C0
E1C0
6380
3E00
ENDCHAR

STARTCHAR scommaaccent
ENCODING 186
SWIDTH 320 0
DWIDTH 12 0
BBX 12 25 2 -9
BITMAP
03E0
0670
0C30
0C00
0C00
0E00
0F00
0780
0380
01C0
01C0
40C0
E0C0
E1C0
6380
3E00
0000
0800
1C00
1C00
0C00
0800
1800
3000
6000
ENDCHAR

STARTCHAR tcaron
ENCODING 187
SWIDTH 320 0
DWIDTH 12 0
BBX 13 27 5 0
BITMAP
0038
0038
0038
0018
0018
0030
0020
0E40
0C40
1C00
1C00
1C00
FF80
1800
3800
3800
3000
3000
7000
7000
6000
6080
E180
E700
FC00
F800
6000
ENDCHAR

STARTCHAR zacute
ENCODING 188
SWIDTH 440 0
DWIDTH 17 0
BBX 18 23 1 0
BITMAP
0003C0
000700
000600
000C00
001000
000000
000000
01E180
07FF00
067600
040C00
061800
023000
006000
00C000
018000
030000
060200
080300
100300
3F8200
7FFE00
C1F800
ENDCHAR

STARTCHAR hungarumlaut
ENCODING 189
SWIDTH 400 0
DWIDTH 15 0
BBX 13 6 3 17
BITMAP
1FF8
3CE0
39C0
7180
6300
C200
ENDCHAR

STARTCHAR zcaron
ENCODING 190
SWIDTH 440 0
DWIDTH 17 0
BBX 19 23 1 0
BITMAP
0020E0
003180
003B00
001E00
001C00
000000
000000
01E180
07FF00
067600
040C00
061800
023000
006000
00C000
018000
030000
060200
080300
100300
3F8200
7FFE00
C1F800
ENDCHAR

STARTCHAR zdotaccent
ENCODING 191
SWIDTH 440 0
DWIDTH 17 0
BBX 17 22 2 0
BITMAP
003000
007800
007800
003000
000000
000000
01E180
07FF00
08F600
0C0C00
061800
023000
004000
008000
010000
060000
0C0200
180700
300300
7F8200
FFFE00
83F800
ENDCHAR

STARTCHAR Racute
ENCODING 192
SWIDTH 600 0
DWIDTH 23 0
BBX 27 36 4 -5
BITMAP
0000F000
0001C000
00030000
00060000
00040000
00000000
00000000
00000000
00FF8000
0383E000
0E00E000
19F07000
30F07000
20E07000
40E07000
40E0E000
80C0E000
81C1C000
81C78000
81FC0000
C1D80000
C39C0000
739C0000
638C0000
038E0000
030E0000
07070000
07070000
0F070000
1E038000
7FE38000
0001C000
0000C060
000060E0
000030C0
00000F80
ENDCHAR

STARTCHAR Aacute
ENCODING 193
SWIDTH 620 0
DWIDTH 24 0
BBX 28 35 -2 -4
BITMAP
000000F0
000001C0
00000180
00000300
00000600
00000C00
00000000
00000080
00000180
0000FF00
00030700
00040F00
000C0B00
00181700
00183700
001C6700
00184600
0000C600
00018E00
00010E00
00030E00
00060E00
00040E00
000FFC00
00180C00
00100C00
00201C00
00601C00
00C01C00
00801C00
01803FC0
03000000
4E000000
FC000000
F0000000
ENDCHAR

STARTCHAR Acircumflex
ENCODING 194
SWIDTH 620 0
DWIDTH 24 0
BBX 27 35 -2 -4
BITMAP
000003C0
000003C0
00000740
00000C40
00001860
00002020
00000000
00000080
00000180
0000FF00
00030700
00040F00
000C0B00
00181700
00183700
001C6700
00184600
0000C600
00018E00
00010E00
00030E00
00060E00
00040E00
000FFC00
00180C00
00100C00
00201C00
00601C00
00C01C00
00801C00
01803FC0
03000000
4E000000
FC000000
F0000000
ENDCHAR

STARTCHAR Abreve
ENCODING 195
SWIDTH 620 0
DWIDTH 24 0
BBX 29 35 -2 -4
BITMAP
00001818
00001830
00000C60
00000FC0
00000780
00000000
00000000
00000080
00000F80
0001FF00
00070700
000C0F00
00081B00
00181700
00183700
001C6700
00184600
00008600
00018E00
00030E00
00020E00
00060E00
000C0E00
000FFC00
00180C00
00300C00
00201C00
00601C00
00C01C00
00801C00
01803FC0
03000000
4E000000
FC000000
F0000000
ENDCHAR

STARTCHAR Adieresis
ENCODING 196
SWIDTH 620 0
DWIDTH 24 0
BBX 27 33 -2 -4
BITMAP
00001CE0
00001CE0
00001CE0
00000000
00000000
00000080
00000100
0000FF00
00030700
00040F00
00081B00
00181700
00183600
001C6600
00184600
00008600
00018E00
00010E00
00030E00
00060E00
00040C00
000FFC00
00180C00
00100C00
00201C00
00601C00
00C01C00
00801C00
01803F80
03000000
4E000000
FC000000
F0000000
ENDCHAR

STARTCHAR Lacute
ENCODING 197
SWIDTH 580 0
DWIDTH 22 0
BBX 21 30 1 0
BITMAP
000078
0000E0
0001C0
000100
000200
000000
000000
000000
0007E0
000CF0
001870
003000
007000
00E000
00E000
00C000
01C000
01C000
018000
038000
038000
038000
030000
070000
070000
070018
0E0018
0E0018
1DFC30
FFFFE0
ENDCHAR

STARTCHAR Cacute
ENCODING 198
SWIDTH 520 0
DWIDTH 20 0
BBX 20 34 4 -4
BITMAP
0000F0
0001C0
000380
000200
000400
000000
000000
000000
003F80
00E0F0
018060
030060
060060
0E0060
1C0040
380040
380000
700000
700000
700000
F00000
E00000
E00000
E00000
E00000
E00000
E00000
F00000
F00100
700200
380400
3C1800
0FF000
03C000
ENDCHAR

STARTCHAR Ccedilla
ENCODING 199
SWIDTH 520 0
DWIDTH 20 0
BBX 19 34 4 -12
BITMAP
003F80
00E1E0
0180E0
070060
0E0060
0C0040
1C0040
380040
380000
700000
700000
700000
F00000
E00000
E00000
E00000
E00000
E00000
E00000
F00000
700300
700600
780400
3C1800
1FF000
07C000
030000
030000
078000
018000
018000
030000
0E0000
100000
ENDCHAR

STARTCHAR Ccaron
ENCODING 200
SWIDTH 520 0
DWIDTH 20 0
BBX 21 34 4 -4
BITMAP
000C38
000C60
0007C0
0007C0
000780
000000
000000
000000
003F80
00E0F0
018060
030060
060060
0E0060
1C0040
380040
380000
700000
700000
700000
F00000
E00000
E00000
E00000
E00000
E00000
E00000
F00000
F00100
700200
380400
3C1800
0FF000
03C000
ENDCHAR

STARTCHAR Eacute
ENCODING 201
SWIDTH 620 0
DWIDTH 24 0
BBX 23 32 2 -1
BITMAP
00003C
000070
0000E0
0000C0
000380
000000
000000
000000
000002
01FFFE
073804
0C3804
103804
207000
607000
407000
407000
C0E020
C0E040
C0FFC0
E0E040
E1C040
61C000
01C000
018000
038000
03800C
03000C
06000C
0FFE08
3FFFF8
2003E0
ENDCHAR

STARTCHAR Eogonek
ENCODING 202
SWIDTH 620 0
DWIDTH 24 0
BBX 23 30 2 -7
BITMAP
000002
01FFFE
073804
0C3804
103004
207000
607000
407000
407000
C0E020
C0E040
C0FFC0
E0E040
E1C040
61C000
01C000
018000
038000
03800C
03000C
06000C
0FFE18
3FFFF8
2007F0
000020
000060
000060
000060
000070
00003E
ENDCHAR

STARTCHAR Edieresis
ENCODING 203
SWIDTH 620 0
DWIDTH 24 0
BBX 23 30 3 -1
BITMAP
000738
000738
000738
000000
000000
000000
000002
01FFFC
07380C
0C3804
103804
207000
607000
407000
407000
C0E020
C0E040
C0FFC0
E0E040
E1C040
61C000
01C000
018000
038000
03801C
03000C
06000C
0FFE18
3FFFF0
2003E0
ENDCHAR

STARTCHAR Ecaron
ENCODING 204
SWIDTH 620 0
DWIDTH 24 0
BBX 23 32 2 -1
BITMAP
000206
00031C
000338
0001F0
0001E0
000000
000000
000000
000002
01FFFE
073804
0C3804
103804
207000
607000
407000
407000
C0E020
C0E040
C0FFC0
E0E040
E1C040
61C000
01C000
018000
038000
03800C
03000C
06000C
0FFE08
3FFFF8
2003E0
ENDCHAR

STARTCHAR Iacute
ENCODING 205
SWIDTH 380 0
DWIDTH 14 0
BBX 18 31 3 0
BITMAP
0003C0
000700
000E00
000C00
001800
003000
000000
000000
000000
01FE00
06F000
00E000
00E000
00C000
01C000
01C000
01C000
018000
038000
038000
038000
030000
070000
070000
070000
060000
0E0000
0E0000
0E0000
1C0000
FFC000
ENDCHAR

STARTCHAR Icircumflex
ENCODING 206
SWIDTH 380 0
DWIDTH 14 0
BBX 16 31 3 0
BITMAP
001C
003E
0076
00E6
0182
0303
0000
0000
0000
01FE
06F0
00E0
00E0
00C0
01C0
01C0
01C0
0180
0380
0380
0380
0300
0700
0700
0700
0600
0E00
0E00
0E00
1C00
FFC0
ENDCHAR

STARTCHAR Dcaron
ENCODING 207
SWIDTH 700 0
DWIDTH 27 0
BBX 26 31 3 0
BITMAP
00018180
00008300
0000CE00
0000DC00
0000F800
00007000
00000000
00000000
00000000
003FE000
01E07C00
03001E00
0C7E0F00
183C0780
301C0380
203803C0
403803C0
403801C0
C03801C0
807001C0
807001C0
807003C0
C0700380
E0E00380
70E00780
30E00700
01C00E00
01C01C00
01807800
0781E000
1FFF8000
ENDCHAR

STARTCHAR Dcroat
ENCODING 208
SWIDTH 700 0
DWIDTH 27 0
BBX 26 22 3 0
BITMAP
003FE000
01E07C00
03001E00
0C7E0F00
183C0780
301C0380
203803C0
403803C0
403801C0
C03801C0
807001C0
87FFE1C0
807001C0
C07003C0
C0E00380
70E00380
30E00700
01C00E00
01C01C00
01803800
0381E000
1FFF8000
ENDCHAR

STARTCHAR Nacute
ENCODING 209
SWIDTH 700 0
DWIDTH 27 0
BBX 33 33 1 -2
BITMAP
000001E000
000001C000
0000030000
0000060000
00000C0000
0000080000
0000000000
0000000000
0000000F00
003F001F80
01F7003100
0307006000
0407804000
080D80C000
080D80C000
1809808000
1809C08000
1809C18000
1C18C10000
0C10E10000
0010E10000
0010630000
0030720000
0020720000
00203A0000
00603E0000
00403C0000
00401C0000
00C01C0000
01800C0000
E100080000
7E00080000
3C00000000
ENDCHAR

STARTCHAR Ncaron
ENCODING 210
SWIDTH 700 0
DWIDTH 27 0
BBX 33 33 1 -2
BITMAP
0000101000
0000186000
000018C000
00000D8000
00000F0000
00000E0000
0000000000
0000000000
0000000F00
003F001F80
01F7003100
0307006000
0407804000
080D80C000
080D80C000
1809808000
1809C08000
1809C18000
1C18C10000
0C10E10000
0010E10000
0010630000
0030720000
0020720000
00203A0000
00603E0000
00403C0000
00401C0000
00C01C0000
01800C0000
E100080000
7E00080000
3C00000000
ENDCHAR

STARTCHAR Oacute
ENCODING 211
SWIDTH 600 0
DWIDTH 23 0
BBX 21 31 4 0
BITMAP
0000E0
0001C0
000380
000700
000400
000800
000000
000000
000000
00FF00
0383C0
0601E0
0C00F0
180070
380078
300038
700038
700038
F00038
E00038
E00038
E00078
E00070
E00070
F00060
F000E0
7001C0
780180
3C0300
1F1E00
07F800
ENDCHAR

STARTCHAR Ocircumflex
ENCODING 212
SWIDTH 600 0
DWIDTH 23 0
BBX 21 31 4 0
BITMAP
000380
000780
000E80
001CC0
0030C0
006040
000000
000000
000000
00FF00
0383C0
0601E0
0C00F0
180070
380078
300038
700038
700038
F00038
E00038
E00038
E00078
E00070
E00070
F00060
F000E0
7001C0
780180
3C0300
1F1E00
07F800
ENDCHAR

STARTCHAR Ohungarumlaut
ENCODING 213
SWIDTH 600 0
DWIDTH 23 0
BBX 22 31 4 0
BITMAP
000FBC
000E78
001C70
0018E0
0030C0
006180
000000
000000
000000
00FF00
0383C0
0601E0
0C00F0
180070
380078
300038
700038
700038
F00038
E00038
E00038
E00078
E00070
E00070
F00060
F000E0
7001C0
780180
3C0300
1F1E00
07F800
ENDCHAR

STARTCHAR Odieresis
ENCODING 214
SWIDTH 600 0
DWIDTH 23 0
BBX 20 28 4 0
BITMAP
0039C0
0039C0
0039C0
000000
000000
000000
00FF00
038780
0601C0
0C01E0
1800F0
3800F0
300070
700070
700070
E00070
E00070
E00070
E00070
E000E0
E000E0
F000C0
F001C0
700180
780300
3C0600
1F1C00
07F000
ENDCHAR

STARTCHAR multiply
ENCODING 215
SWIDTH 520 0
DWIDTH 20 0
BBX 14 14 6 4
BITMAP
2008
E01C
7038
3870
1CE0
0FC0
0380
0780
0FC0
1CE0
3870
7038
E01C
4008
ENDCHAR

STARTCHAR Rcaron
ENCODING 216
SWIDTH 600 0
DWIDTH 23 0
BBX 27 36 4 -5
BITMAP
00183000
0008C000
000DC000
000F8000
000F0000
00000000
00000000
00000000
00FF8000
0383E000
0E00E000
19F07000
30F07000
20E07000
40E07000
40E0E000
80C0E000
81C1C000
81C78000
81FC0000
C1D80000
C39C0000
739C0000
638C0000
038E0000
030E0000
07070000
07070000
0F070000
1E038000
7FE38000
0001C000
0000C060
000060E0
000030C0
00000F80
ENDCHAR

STARTCHAR Uring
ENCODING 217
SWIDTH 740 0
DWIDTH 28 0
BBX 26 31 4 0
BITMAP
0000F000
00019800
00010800
00010800
00019800
0000F180
000001C0
000001C0
000000C0
07F800C0
1C7000C0
307000C0
60E000C0
40E000C0
C0C00080
E1C00080
E1C00180
43800180
03800100
03800300
07000300
07000600
07000600
07000C00
07000C00
07001800
07803000
03C06000
03E3C000
01FF8000
00FE0000
ENDCHAR

STARTCHAR Uacute
ENCODING 218
SWIDTH 740 0
DWIDTH 28 0
BBX 26 31 4 0
BITMAP
00001E00
00001C00
00003800
00006000
0000C000
00000180
000001C0
000001C0
000000C0
07F800C0
1C7000C0
307000C0
60E000C0
40E000C0
C0C00080
E1C00080
E1C00180
43800180
03800100
03800300
07000300
07000200
07000600
07000C00
07000C00
07001800
07803000
03C0E000
03E3C000
01FF8000
00FE0000
ENDCHAR

STARTCHAR Uhungarumlaut
ENCODING 219
SWIDTH 740 0
DWIDTH 28 0
BBX 26 31 4 0
BITMAP
0001F780
0001CF00
00038E00
00031C00
00061800
000C3180
000001C0
000001C0
000000C0
07F800C0
1C7000C0
307000C0
60E000C0
40E000C0
C0C00080
E1C00080
E1C00180
43800180
03800100
03800300
07000300
07000200
07000600
07000C00
07000C00
07001800
07803000
03C0E000
03E3C000
01FF8000
00FE0000
ENDCHAR

STARTCHAR Udieresis
ENCODING 220
SWIDTH 740 0
DWIDTH 28 0
BBX 26 29 4 0
BITMAP
0001CE00
0001CE00
0001CF00
00000180
000001C0
000001C0
003800C0
07F800C0
187000C0
207000C0
40E000C0
40E000C0
C0C00080
E1C00080
E1C00180
03800180
03800100
03800100
07000300
07000200
07000600
07000400
07000C00
07801800
07803000
03C06000
03E3C000
01FF8000
00FE0000
ENDCHAR

STARTCHAR Yacute
ENCODING 221
SWIDTH 560 0
DWIDTH 21 0
BBX 27 31 4 0
BITMAP
00003C00
00007000
00006000
0000C000
00018000
00000000
000001E0
000003E0
00400600
03E00C00
0EF01800
18703000
20706000
40384000
C038C000
80198000
801D0000
C01F0000
C01E0000
E01E0000
001C0000
001C0000
00180000
00380000
00380000
00380000
00300000
00700000
00700000
00F00000
03FF0000
ENDCHAR

STARTCHAR Tcommaaccent
ENCODING 222
SWIDTH 500 0
DWIDTH 19 0
BBX 25 36 3 -10
BITMAP
00000180
00000180
00000180
01FF8300
07FFFE00
1E070000
30070000
200E0000
400E0000
400E0000
C00C0000
C01C0000
C01C0000
E01C0000
60180000
20180000
00380000
00380000
00380000
00700000
00700000
00700000
00700000
00E00000
01E00000
0FFF0000
00000000
00000000
01C00000
01C00000
00C00000
00800000
01800000
03000000
06000000
02000000
ENDCHAR

STARTCHAR germandbls
ENCODING 223
SWIDTH 420 0
DWIDTH 16 0
BBX 26 36 -7 -9
BITMAP
00001F00
00003180
000060C0
0000E0C0
0000C0C0
0001C0C0
0001C180
00018180
00018300
00038300
00038600
00030C00
00070C00
00071800
00071C00
00071C00
00061E00
000E0E00
000E0F00
000E0700
000C0700
001C0300
001C0300
001DC300
0019C600
0038CC00
0038F800
00300000
00300000
00600000
00600000
00400000
00800000
FF000000
FE000000
70000000
ENDCHAR

STARTCHAR racute
ENCODING 224
SWIDTH 300 0
DWIDTH 11 0
BBX 14 23 3 0
BITMAP
003C
0070
00E0
00C0
0100
0000
0008
0E3C
1E78
2EE0
CF80
4D00
1E00
1C00
1C00
1800
1800
3800
3800
3000
3000
7000
7000
ENDCHAR

STARTCHAR aacute
ENCODING 225
SWIDTH 420 0
DWIDTH 16 0
BBX 16 24 3 0
BITMAP
0007
000E
001C
0030
0060
0000
0000
0004
00FC
03FC
0618
0C18
1838
1038
3030
7070
6070
6070
E0E0
E0E0
E166
F6EC
FCF8
78E0
ENDCHAR

STARTCHAR acircumflex
ENCODING 226
SWIDTH 420 0
DWIDTH 16 0
BBX 17 24 3 0
BITMAP
000F00
001F00
001B00
003180
00C180
000000
000000
000400
00FC00
03FC00
061800
0C1800
183800
103800
303000
707000
607000
607000
E0E000
E0E000
E16600
F6EC00
FCF800
78E000
ENDCHAR

STARTCHAR abreve
ENCODING 227
SWIDTH 420 0
DWIDTH 16 0
BBX 18 24 3 0
BITMAP
004040
004080
006380
007F00
003E00
000000
000000
000400
00FC00
03FC00
061800
0C1800
183800
103800
303000
707000
607000
607000
E0E000
E0E000
E16600
F6EC00
FCF800
78E000
ENDCHAR

STARTCHAR adieresis
ENCODING 228
SWIDTH 420 0
DWIDTH 16 0
BBX 17 22 3 0
BITMAP
007380
007380
007380
000000
000000
000400
00FC00
03F800
061800
0C3800
183800
103000
303000
707000
607000
606000
E0E000
E0E000
E16600
F6EC00
FCF000
78E000
ENDCHAR

STARTCHAR lacute
ENCODING 229
SWIDTH 240 0
DWIDTH 9 0
BBX 14 31 4 0
BITMAP
003C
0070
0060
0080
0038
00FC
03B8
0600
0600
0E00
0C00
0C00
1C00
1C00
1800
1800
3800
3800
3000
3000
7000
7000
7000
6000
E000
E000
E300
C600
CC00
F000
E000
ENDCHAR

STARTCHAR cacute
ENCODING 230
SWIDTH 340 0
DWIDTH 13 0
BBX 15 24 3 0
BITMAP
001E
0038
0070
0060
00C0
0180
0000
0000
01E0
07F0
0C70
1800
3000
3000
7000
6000
6000
E000
E000
E020
E060
F180
7F00
3C00
ENDCHAR

STARTCHAR ccedilla
ENCODING 231
SWIDTH 340 0
DWIDTH 13 0
BBX 12 24 3 -8
BITMAP
01F0
07F0
0C70
1800
1800
3000
7000
7000
6000
E000
E000
E020
E060
F1C0
7F00
3C00
1000
3800
3C00
0C00
0C00
1800
E000
8000
ENDCHAR

STARTCHAR ccaron
ENCODING 232
SWIDTH 340 0
DWIDTH 13 0
BBX 15 24 3 0
BITMAP
0202
010C
0198
01F8
01F0
00E0
0000
0000
01E0
07F0
0C70
1800
3000
3000
7000
6000
6000
E000
E000
E020
E060
F180
7F00
3C00
ENDCHAR

STARTCHAR eacute
ENCODING 233
SWIDTH 340 0
DWIDTH 13 0
BBX 14 23 3 0
BITMAP
003C
0070
00E0
00C0
0100
0000
0000
01C0
07F0
0C70
1870
1860
30E0
7180
7700
7C00
F000
E000
E060
E0C0
F380
FE00
7C00
ENDCHAR

STARTCHAR eogonek
ENCODING 234
SWIDTH 340 0
DWIDTH 13 0
BBX 12 22 3 -6
BITMAP
01C0
07F0
0C70
1870
1860
30E0
7180
7700
7C00
F000
E000
E060
E0C0
F380
FF00
7C00
1800
1000
3000
3000
3800
1E00
ENDCHAR

STARTCHAR edieresis
ENCODING 235
SWIDTH 340 0
DWIDTH 13 0
BBX 15 21 3 0
BITMAP
038E
038E
038E
0000
0000
01C0
07F0
0C70
1870
1860
30E0
7180
7700
7C00
F000
E000
E060
E0C0
F380
FE00
7C00
ENDCHAR

STARTCHAR ecaron
ENCODING 236
SWIDTH 340 0
DWIDTH 13 0
BBX 15 23 3 0
BITMAP
0306
0118
01B8
01F0
01E0
0000
0000
01C0
07F0
0C70
1870
1860
30E0
7180
7700
7C00
F000
E000
E060
E0C0
F380
FE00
7C00
ENDCHAR

STARTCHAR iacute
ENCODING 237
SWIDTH 240 0
DWIDTH 9 0
BBX 11 24 3 0
BITMAP
01E0
03C0
0300
0600
0C00
0800
0000
0000
0E00
3E00
6E00
CC00
0C00
1C00
1C00
1800
3800
3800
3000
3000
7300
7600
7C00
7000
ENDCHAR

STARTCHAR icircumflex
ENCODING 238
SWIDTH 240 0
DWIDTH 9 0
BBX 11 24 3 0
BITMAP
0380
07C0
0EC0
0CC0
1840
2060
0000
0000
0E00
3E00
6E00
CC00
0C00
1C00
1C00
1800
3800
3800
3000
3000
7300
7600
7C00
7000
ENDCHAR

STARTCHAR dcaron
ENCODING 239
SWIDTH 483 0
DWIDTH 18 0
BBX 25 27 3 0
BITMAP
00007380
0000FB80
0001B380
00030180
00060180
00060100
00060300
000E0E00
000C0400
000C0000
001C0000
00FC0000
03F80000
06180000
0C380000
18380000
18380000
30300000
70300000
60700000
60700000
E0600000
E0E00000
E1620000
F6EC0000
FCF80000
78E00000
ENDCHAR

STARTCHAR dcroat
ENCODING 240
SWIDTH 440 0
DWIDTH 17 0
BBX 23 26 3 0
BITMAP
00003C
0000FE
00019C
000300
000600
000600
00FFF0
000E00
000C00
001C00
00FC00
03FC00
061800
0C1800
183800
183800
303000
703000
607000
607000
E06000
E0E000
E16200
F6EC00
FCF800
78E000
ENDCHAR

STARTCHAR nacute
ENCODING 241
SWIDTH 460 0
DWIDTH 17 0
BBX 16 24 3 0
BITMAP
000F
001C
0038
0030
0060
0080
0000
0000
0E1E
3E3E
6EEE
CD8E
0F0E
1E1C
1C1C
1C1C
1818
1838
3838
3830
3831
3072
707C
0030
ENDCHAR

STARTCHAR ncaron
ENCODING 242
SWIDTH 460 0
DWIDTH 17 0
BBX 17 24 3 0
BITMAP
008180
00C300
004E00
007C00
007800
000000
000000
000000
0E1E00
3E3E00
6EEE00
CD8E00
0F0E00
1E1C00
1C1C00
1C1C00
181800
183800
383800
383000
383100
307200
707C00
003000
ENDCHAR

STARTCHAR oacute
ENCODING 243
SWIDTH 400 0
DWIDTH 15 0
BBX 14 24 3 0
BITMAP
003C
0070
0060
00C0
0180
0100
0000
0000
03E0
0C70
1878
3038
3038
7038
6038
6038
E038
E030
E070
E060
E060
F0C0
7980
3E00
ENDCHAR

STARTCHAR ocircumflex
ENCODING 244
SWIDTH 400 0
DWIDTH 15 0
BBX 14 24 3 0
BITMAP
0078
0078
00D8
0188
030C
0404
0000
0000
03E0
0C70
1878
3038
3038
7038
6038
6038
E038
E030
E070
E060
E060
F0C0
7980
3E00
ENDCHAR

STARTCHAR ohungarumlaut
ENCODING 245
SWIDTH 400 0
DWIDTH 15 0
BBX 18 24 3 0
BITMAP
00FBC0
00E780
01C700
018E00
030C00
061800
000000
000000
03E000
0C7000
187800
303800
303800
703800
603800
603800
E03800
E03000
E07000
E06000
E06000
F0C000
798000
3E0000
ENDCHAR

STARTCHAR odieresis
ENCODING 246
SWIDTH 400 0
DWIDTH 15 0
BBX 14 22 3 0
BITMAP
039C
039C
039C
0000
0000
0000
03E0
0E70
1878
1838
3038
7038
6038
6038
E038
E030
E030
E060
E060
F0C0
7980
3E00
ENDCHAR

STARTCHAR divide
ENCODING 247
SWIDTH 520 0
DWIDTH 20 0
BBX 17 14 5 4
BITMAP
01C000
01C000
01C000
000000
000000
000000
FFFF80
FFFF80
000000
000000
000000
01C000
01C000
01C000
ENDCHAR

STARTCHAR rcaron
ENCODING 248
SWIDTH 300 0
DWIDTH 11 0
BBX 15 23 3 0
BITMAP
0306
011C
01B8
01F0
01E0
0000
0008
0E3C
1E78
2EE0
CF80
4D00
1E00
1C00
1C00
1800
1800
3800
3800
3000
3000
7000
7000
ENDCHAR

STARTCHAR uring
ENCODING 249
SWIDTH 460 0
DWIDTH 17 0
BBX 17 24 3 0
BITMAP
007800
00CC00
008400
008400
00CC00
007800
000000
000000
1E0700
3E0600
4E0E00
8E0E00
0E0C00
0C0C00
0C1C00
1C1C00
1C1800
183800
183800
385880
39B100
3F3E00
3E3C00
183000
ENDCHAR

STARTCHAR uacute
ENCODING 250
SWIDTH 460 0
DWIDTH 17 0
BBX 16 24 3 0
BITMAP
000F
000C
0018
0030
0060
0000
0000
0000
1E0E
3E0E
4E0C
8E1C
1C1C
1C18
1C18
1838
3838
3870
3870
70B1
7172
7E74
7C78
3070
ENDCHAR

STARTCHAR uhungarumlaut
ENCODING 251
SWIDTH 460 0
DWIDTH 17 0
BBX 18 24 3 0
BITMAP
00F7C0
01E700
01CE00
038C00
031800
061000
000000
000000
1E0E00
3E0E00
4E0C00
8E1C00
1C1C00
1C1800
1C1800
183800
383800
387000
387000
70B100
717200
7E7400
7C7800
307000
ENDCHAR

STARTCHAR udieresis
ENCODING 252
SWIDTH 460 0
DWIDTH 17 0
BBX 16 22 3 0
BITMAP
00E7
00E7
00E7
0000
0000
0000
1E0E
3E0E
4E0C
8E0C
1C1C
1C1C
1C18
1C18
3838
3838
3870
70D1
71B3
7F76
7C38
3030
ENDCHAR

STARTCHAR yacute
ENCODING 253
SWIDTH 400 0
DWIDTH 15 0
BBX 18 32 -1 -9
BITMAP
0003C0
000300
000600
000C00
001800
000000
000000
018080
03C1C0
1FE0C0
08E0C0
0060C0
0070C0
003080
003080
003980
003900
001900
001B00
001A00
001E00
001C00
001C00
001800
001000
003000
006000
004000
008000
630000
FE0000
F80000
ENDCHAR

STARTCHAR tcommaaccent
ENCODING 254
SWIDTH 320 0
DWIDTH 12 0
BBX 11 29 2 -9
BITMAP
0180
0300
0300
0700
0700
3FE0
0600
0E00
0E00
0C00
0C00
1C00
1C00
1800
1820
3860
39C0
3F00
3E00
1800
0000
1800
3800
3800
1800
1000
2000
6000
8000
ENDCHAR

STARTCHAR dotaccent
ENCODING 255
SWIDTH 220 0
DWIDTH 8 0
BBX 4 4 8 18
BITMAP
60
F0
F0
60
ENDCHAR
ENDFONT
